<svg width="22" height="18" viewBox="0 0 22 18" fill="none" xmlns="http://www.w3.org/2000/svg">
<path d="M21.1701 2.86154C20.4246 3.19188 19.6247 3.41591 18.7842 3.51593C19.6424 3.00204 20.2993 2.18693 20.6106 1.21864C19.8056 1.69454 18.9171 2.04011 17.9703 2.22744C17.2122 1.41865 16.1338 0.914879 14.9376 0.914879C12.6429 0.914879 10.7823 2.77549 10.7823 5.06897C10.7823 5.39425 10.819 5.71195 10.8899 6.01574C7.43701 5.84232 4.37524 4.18803 2.32605 1.67429C1.96784 2.28691 1.76406 3.00075 1.76406 3.76274C1.76406 5.20441 2.49819 6.47645 3.61203 7.22067C2.93106 7.1979 2.2906 7.01057 1.72991 6.6992V6.75109C1.72991 8.76358 3.16271 10.4432 5.06253 10.8255C4.71445 10.9191 4.34741 10.971 3.96769 10.971C3.69937 10.971 3.43989 10.9444 3.18548 10.8938C3.71453 12.5456 5.24861 13.7467 7.06619 13.7797C5.64478 14.8935 3.85251 15.5555 1.90585 15.5555C1.57044 15.5555 1.24007 15.5352 0.914795 15.4985C2.75389 16.6794 4.93726 17.368 7.2839 17.368C14.9276 17.368 19.1057 11.0368 19.1057 5.54617L19.0918 5.00824C19.9082 4.42597 20.6144 3.69439 21.1701 2.86154Z" fill="#fff"/>
</svg>
